<svg xmlns="http://www.w3.org/2000/svg" viewBox="0 0 24 24" fill="none"><rect width="24" height="24" fill="#7961F2" rx="4"></rect><path fill="#fff" fill-rule="evenodd" d="M18.238 6.982V4h.89l.005 4.46h-4.461v-.89h2.895a7.1 7.1 0 0 0-5.558-2.678c-3.932 0-7.12 3.196-7.12 7.137a7.13 7.13 0 0 0 3.171 5.94l-.494.742A8.03 8.03 0 0 1 4 12.03C4 7.595 7.586 4 12.009 4a7.99 7.99 0 0 1 6.229 2.982M9.398 18.67c.557.22 1.14.37 1.732.444l-.11.886a8.2 8.2 0 0 1-1.95-.502zm3.52.44a7.2 7.2 0 0 0 1.733-.453l.329.829a7 7 0 0 1-1.947.508zm4.595-2.554.69.565a8 8 0 0 1-1.46 1.389l-.527-.72a7 7 0 0 0 1.297-1.234m1.498-3.23.875.164c-.09.484-.386 1.51-.613 1.92l-.807-.374c.252-.546.436-1.12.545-1.71m.597-3.83a8.5 8.5 0 0 1 .392 1.98l-.887.062a7.4 7.4 0 0 0-.35-1.762z" clip-rule="evenodd"></path></svg>